STARTFONT 2.1
FONT -Adobe-Utopia-Regular-I-Normal--15-140-75-75-P-79-ISO8859-2
SIZE 14 75 75
FONTBOUNDINGBOX 20 15 -3 -3
STARTPROPERTIES 29
FOUNDRY "Adobe"
FAMILY_NAME "Utopia"
WEIGHT_NAME "Regular"
SLANT "I"
SETWIDTH_NAME "Normal"
ADD_STYLE_NAME ""
PIXEL_SIZE 15
POINT_SIZE 140
RESOLUTION_X 75
RESOLUTION_Y 75
SPACING "P"
AVERAGE_WIDTH 79
CHARSET_REGISTRY "ISO8859"
CHARSET_ENCODING "2"
CAP_HEIGHT 10
X_HEIGHT 7
RELATIVE_SETWIDTH 50
RELATIVE_WEIGHT 50
WEIGHT 130
FACE_NAME "Utopia Italic"
COPYRIGHT "Copyright (c) 1989, 1991 Adobe Systems Incorporated.  All rights reserved., Copyright 1996 Cub Soft"
NOTICE "Utopia is a registered trademark of Adobe Systems Incorporated."
DESTINATION 0
FONT_ASCENT 12
FONT_DESCENT 3
DEFAULT_CHAR 32
_ADOBE_PSFONT "Utopia-Italic"
_ADOBE_XFONT "-Adobe-Utopia-Regular-I-Normal--15-140-75-75-P-79-ISO8859-2"
_DEC_DEVICE_FONTNAMES "PS=Utopia-Italic"
ENDPROPERTIES
CHARS 191
STARTCHAR space
ENCODING 32
SWIDTH 225 0
DWIDTH 3 0
BBX 0 0 0 0
BITMAP
ENDCHAR
STARTCHAR exclam
ENCODING 33
SWIDTH 240 0
DWIDTH 3 0
BBX 3 10 0 0
BITMAP
20
20
20
60
40
40
40
00
80
80
ENDCHAR
STARTCHAR quotedbl
ENCODING 34
SWIDTH 402 0
DWIDTH 6 0
BBX 3 3 2 7
BITMAP
a0
a0
a0
ENDCHAR
STARTCHAR numbersign
ENCODING 35
SWIDTH 530 0
DWIDTH 8 0
BBX 7 10 0 0
BITMAP
14
14
14
7e
28
28
fc
50
50
50
ENDCHAR
STARTCHAR dollar
ENCODING 36
SWIDTH 530 0
DWIDTH 8 0
BBX 7 12 1 -1
BITMAP
08
1e
2a
50
70
38
1c
14
24
a8
f0
20
ENDCHAR
STARTCHAR percent
ENCODING 37
SWIDTH 826 0
DWIDTH 12 0
BBX 11 10 1 0
BITMAP
7080
cf00
8900
9a00
7400
09c0
0b20
1220
2260
41c0
ENDCHAR
STARTCHAR ampersand
ENCODING 38
SWIDTH 725 0
DWIDTH 11 0
BBX 10 10 0 0
BITMAP
1c00
2200
2200
1400
3840
4840
8480
8300
c600
7980
ENDCHAR
STARTCHAR apostrophe
ENCODING 39
SWIDTH 216 0
DWIDTH 4 0
BBX 2 3 1 7
BITMAP
40
40
80
ENDCHAR
STARTCHAR parenleft
ENCODING 40
SWIDTH 350 0
DWIDTH 5 0
BBX 5 12 1 -2
BITMAP
18
20
60
40
40
c0
80
80
80
80
80
40
ENDCHAR
STARTCHAR parenright
ENCODING 41
SWIDTH 350 0
DWIDTH 5 0
BBX 5 12 -1 -2
BITMAP
10
08
08
08
08
08
18
10
10
30
20
c0
ENDCHAR
STARTCHAR asterisk
ENCODING 42
SWIDTH 412 0
DWIDTH 6 0
BBX 6 6 0 4
BITMAP
10
54
38
70
a8
20
ENDCHAR
STARTCHAR plus
ENCODING 43
SWIDTH 570 0
DWIDTH 8 0
BBX 7 7 0 0
BITMAP
10
10
10
fe
10
10
10
ENDCHAR
STARTCHAR comma
ENCODING 44
SWIDTH 265 0
DWIDTH 4 0
BBX 2 3 0 -1
BITMAP
40
40
80
ENDCHAR
STARTCHAR minus
ENCODING 45
SWIDTH 570 0
DWIDTH 8 0
BBX 7 1 0 3
BITMAP
fe
ENDCHAR
STARTCHAR period
ENCODING 46
SWIDTH 265 0
DWIDTH 4 0
BBX 1 2 1 0
BITMAP
80
80
ENDCHAR
STARTCHAR slash
ENCODING 47
SWIDTH 270 0
DWIDTH 4 0
BBX 3 10 0 0
BITMAP
20
20
20
40
40
40
40
80
80
80
ENDCHAR
STARTCHAR zero
ENCODING 48
SWIDTH 530 0
DWIDTH 8 0
BBX 6 10 1 0
BITMAP
18
24
44
44
c4
8c
88
88
90
60
ENDCHAR
STARTCHAR one
ENCODING 49
SWIDTH 530 0
DWIDTH 8 0
BBX 5 10 1 0
BITMAP
38
08
08
10
10
10
20
20
20
f8
ENDCHAR
STARTCHAR two
ENCODING 50
SWIDTH 530 0
DWIDTH 8 0
BBX 6 10 1 0
BITMAP
38
64
04
04
08
10
20
40
88
f8
ENDCHAR
STARTCHAR three
ENCODING 51
SWIDTH 530 0
DWIDTH 8 0
BBX 6 10 1 0
BITMAP
38
64
04
0c
38
0c
04
84
c8
70
ENDCHAR
STARTCHAR four
ENCODING 52
SWIDTH 530 0
DWIDTH 8 0
BBX 6 10 1 0
BITMAP
18
10
30
20
68
48
88
fc
10
10
ENDCHAR
STARTCHAR five
ENCODING 53
SWIDTH 530 0
DWIDTH 8 0
BBX 7 10 1 0
BITMAP
3e
20
20
40
78
0c
04
04
c8
70
ENDCHAR
STARTCHAR six
ENCODING 54
SWIDTH 530 0
DWIDTH 8 0
BBX 6 10 1 0
BITMAP
1c
24
40
40
b8
cc
84
84
c8
70
ENDCHAR
STARTCHAR seven
ENCODING 55
SWIDTH 530 0
DWIDTH 8 0
BBX 6 10 1 0
BITMAP
fc
84
08
18
10
30
20
60
40
40
ENDCHAR
STARTCHAR eight
ENCODING 56
SWIDTH 530 0
DWIDTH 8 0
BBX 6 10 1 0
BITMAP
38
44
44
68
30
58
88
88
88
70
ENDCHAR
STARTCHAR nine
ENCODING 57
SWIDTH 530 0
DWIDTH 8 0
BBX 6 10 1 0
BITMAP
38
4c
84
84
cc
74
08
08
90
e0
ENDCHAR
STARTCHAR colon
ENCODING 58
SWIDTH 265 0
DWIDTH 4 0
BBX 2 7 1 0
BITMAP
40
40
00
00
00
80
80
ENDCHAR
STARTCHAR semicolon
ENCODING 59
SWIDTH 265 0
DWIDTH 4 0
BBX 3 8 0 -1
BITMAP
20
20
00
00
00
40
40
80
ENDCHAR
STARTCHAR less
ENCODING 60
SWIDTH 570 0
DWIDTH 8 0
BBX 7 7 0 0
BITMAP
02
0c
30
c0
30
0c
02
ENDCHAR
STARTCHAR equal
ENCODING 61
SWIDTH 570 0
DWIDTH 8 0
BBX 7 4 0 2
BITMAP
fe
00
00
fe
ENDCHAR
STARTCHAR greater
ENCODING 62
SWIDTH 570 0
DWIDTH 8 0
BBX 7 7 0 0
BITMAP
80
60
18
06
18
60
80
ENDCHAR
STARTCHAR question
ENCODING 63
SWIDTH 425 0
DWIDTH 6 0
BBX 4 10 1 0
BITMAP
60
90
10
20
40
80
c0
00
80
80
ENDCHAR
STARTCHAR at
ENCODING 64
SWIDTH 794 0
DWIDTH 11 0
BBX 10 10 0 0
BITMAP
1f00
2080
4740
8940
9240
a640
aa80
b300
4000
3f00
ENDCHAR
STARTCHAR A
ENCODING 65
SWIDTH 624 0
DWIDTH 9 0
BBX 9 10 -1 0
BITMAP
0200
0600
0a00
0a00
1200
1f00
2100
2100
4100
e380
ENDCHAR
STARTCHAR B
ENCODING 66
SWIDTH 632 0
DWIDTH 9 0
BBX 8 10 0 0
BITMAP
3e
11
31
22
3c
22
62
42
46
fc
ENDCHAR
STARTCHAR C
ENCODING 67
SWIDTH 661 0
DWIDTH 10 0
BBX 9 10 1 0
BITMAP
0f80
3080
6000
4000
c000
8000
8000
8100
4300
3e00
ENDCHAR
STARTCHAR D
ENCODING 68
SWIDTH 763 0
DWIDTH 11 0
BBX 10 10 0 0
BITMAP
3f00
1080
3040
2040
2040
20c0
6080
4180
4300
fc00
ENDCHAR
STARTCHAR E
ENCODING 69
SWIDTH 596 0
DWIDTH 8 0
BBX 8 10 0 0
BITMAP
3f
11
30
22
3c
24
60
40
42
fe
ENDCHAR
STARTCHAR F
ENCODING 70
SWIDTH 571 0
DWIDTH 8 0
BBX 8 10 0 0
BITMAP
3f
11
30
22
3c
24
60
40
40
e0
ENDCHAR
STARTCHAR G
ENCODING 71
SWIDTH 709 0
DWIDTH 10 0
BBX 9 10 1 0
BITMAP
0f80
3080
6000
4000
c000
8000
8380
8100
4300
3e00
ENDCHAR
STARTCHAR H
ENCODING 72
SWIDTH 775 0
DWIDTH 11 0
BBX 11 10 0 0
BITMAP
38e0
1040
30c0
2080
3f80
2080
6180
4100
4100
e380
ENDCHAR
STARTCHAR I
ENCODING 73
SWIDTH 345 0
DWIDTH 5 0
BBX 5 10 0 0
BITMAP
38
10
30
20
20
20
60
40
40
e0
ENDCHAR
STARTCHAR J
ENCODING 74
SWIDTH 352 0
DWIDTH 5 0
BBX 6 12 -1 -2
BITMAP
1c
08
08
18
10
10
10
30
20
20
20
c0
ENDCHAR
STARTCHAR K
ENCODING 75
SWIDTH 650 0
DWIDTH 10 0
BBX 10 10 0 0
BITMAP
3bc0
1100
3200
2400
2800
3c00
6400
4200
4300
e180
ENDCHAR
STARTCHAR L
ENCODING 76
SWIDTH 565 0
DWIDTH 8 0
BBX 7 10 0 0
BITMAP
38
10
30
20
20
20
60
40
42
fe
ENDCHAR
STARTCHAR M
ENCODING 77
SWIDTH 920 0
DWIDTH 13 0
BBX 13 10 0 0
BITMAP
3018
1030
1850
28b0
28a0
2d20
4660
4440
4440
e0e0
ENDCHAR
STARTCHAR N
ENCODING 78
SWIDTH 763 0
DWIDTH 11 0
BBX 11 10 0 0
BITMAP
30e0
1840
1840
2880
2480
2480
2280
4300
4300
e100
ENDCHAR
STARTCHAR O
ENCODING 79
SWIDTH 753 0
DWIDTH 12 0
BBX 10 10 1 0
BITMAP
0f00
3080
6040
4040
c040
80c0
8080
8180
4300
3c00
ENDCHAR
STARTCHAR P
ENCODING 80
SWIDTH 614 0
DWIDTH 8 0
BBX 8 10 0 0
BITMAP
3e
13
31
21
22
3c
60
40
40
e0
ENDCHAR
STARTCHAR Q
ENCODING 81
SWIDTH 753 0
DWIDTH 12 0
BBX 10 13 1 -3
BITMAP
0f00
3080
6040
4040
c040
80c0
8080
8180
4300
3c00
0800
0400
0380
ENDCHAR
STARTCHAR R
ENCODING 82
SWIDTH 640 0
DWIDTH 9 0
BBX 8 10 0 0
BITMAP
3e
13
31
21
22
3c
64
46
42
e3
ENDCHAR
STARTCHAR S
ENCODING 83
SWIDTH 533 0
DWIDTH 8 0
BBX 8 10 0 0
BITMAP
0f
11
20
20
38
0e
02
02
84
f8
ENDCHAR
STARTCHAR T
ENCODING 84
SWIDTH 606 0
DWIDTH 9 0
BBX 9 10 1 0
BITMAP
ff80
8880
0800
1800
1000
1000
3000
2000
2000
7000
ENDCHAR
STARTCHAR U
ENCODING 85
SWIDTH 794 0
DWIDTH 12 0
BBX 11 10 1 0
BITMAP
70e0
2040
60c0
4080
4080
c180
8100
8100
c200
7c00
ENDCHAR
STARTCHAR V
ENCODING 86
SWIDTH 637 0
DWIDTH 10 0
BBX 9 10 1 0
BITMAP
e380
4100
4200
4200
6400
2400
2800
2800
3000
2000
ENDCHAR
STARTCHAR W
ENCODING 87
SWIDTH 946 0
DWIDTH 14 0
BBX 13 10 1 0
BITMAP
e238
4210
4210
4620
6720
2940
2940
3180
3180
2100
ENDCHAR
STARTCHAR X
ENCODING 88
SWIDTH 632 0
DWIDTH 9 0
BBX 9 10 0 0
BITMAP
3b80
1100
1200
0a00
0c00
1400
1400
2200
4200
e700
ENDCHAR
STARTCHAR Y
ENCODING 89
SWIDTH 591 0
DWIDTH 10 0
BBX 9 10 1 0
BITMAP
e380
4100
6200
2400
3800
1000
1000
2000
2000
7000
ENDCHAR
STARTCHAR Z
ENCODING 90
SWIDTH 622 0
DWIDTH 9 0
BBX 9 10 0 0
BITMAP
7f80
4100
0200
0400
0800
1000
2000
4000
8100
ff00
ENDCHAR
STARTCHAR bracketleft
ENCODING 91
SWIDTH 330 0
DWIDTH 5 0
BBX 5 12 0 -2
BITMAP
38
20
20
20
40
40
40
40
80
80
80
e0
ENDCHAR
STARTCHAR backslash
ENCODING 92
SWIDTH 390 0
DWIDTH 6 0
BBX 3 10 1 0
BITMAP
80
80
80
40
40
40
40
20
20
20
ENDCHAR
STARTCHAR bracketright
ENCODING 93
SWIDTH 330 0
DWIDTH 5 0
BBX 5 12 -1 -2
BITMAP
38
08
08
08
10
10
10
10
20
20
20
e0
ENDCHAR
STARTCHAR asciicircum
ENCODING 94
SWIDTH 570 0
DWIDTH 8 0
BBX 7 6 0 4
BITMAP
10
28
28
44
44
82
ENDCHAR
STARTCHAR underscore
ENCODING 95
SWIDTH 500 0
DWIDTH 7 0
BBX 7 1 0 -2
BITMAP
fe
ENDCHAR
STARTCHAR grave
ENCODING 96
SWIDTH 400 0
DWIDTH 6 0
BBX 2 2 2 8
BITMAP
80
40
ENDCHAR
STARTCHAR a
ENCODING 97
SWIDTH 561 0
DWIDTH 8 0
BBX 7 7 1 0
BITMAP
3c
44
c4
88
88
9a
ec
ENDCHAR
STARTCHAR b
ENCODING 98
SWIDTH 559 0
DWIDTH 8 0
BBX 6 11 1 0
BITMAP
60
20
20
40
5c
64
44
44
8c
88
f0
ENDCHAR
STARTCHAR c
ENCODING 99
SWIDTH 441 0
DWIDTH 7 0
BBX 5 7 1 0
BITMAP
38
48
c0
80
80
88
70
ENDCHAR
STARTCHAR d
ENCODING 100
SWIDTH 587 0
DWIDTH 9 0
BBX 7 11 1 0
BITMAP
06
02
02
04
3c
44
c4
88
88
9a
6c
ENDCHAR
STARTCHAR e
ENCODING 101
SWIDTH 453 0
DWIDTH 7 0
BBX 5 7 1 0
BITMAP
38
48
c8
90
e0
88
70
ENDCHAR
STARTCHAR f
ENCODING 102
SWIDTH 315 0
DWIDTH 5 0
BBX 9 14 -2 -3
BITMAP
0380
0480
0400
0400
1e00
0800
0800
0800
0800
1000
1000
1000
9000
e000
ENDCHAR
STARTCHAR g
ENCODING 103
SWIDTH 499 0
DWIDTH 7 0
BBX 9 10 -1 -3
BITMAP
1f80
3200
2200
2400
1800
2000
3800
4600
8200
7c00
ENDCHAR
STARTCHAR h
ENCODING 104
SWIDTH 607 0
DWIDTH 9 0
BBX 8 11 1 0
BITMAP
60
20
20
40
4c
52
62
42
84
85
86
ENDCHAR
STARTCHAR i
ENCODING 105
SWIDTH 317 0
DWIDTH 4 0
BBX 3 10 1 0
BITMAP
20
20
00
c0
40
40
80
80
a0
c0
ENDCHAR
STARTCHAR j
ENCODING 106
SWIDTH 309 0
DWIDTH 4 0
BBX 6 14 -2 -3
BITMAP
04
04
00
00
18
08
08
08
10
10
10
10
90
e0
ENDCHAR
STARTCHAR k
ENCODING 107
SWIDTH 545 0
DWIDTH 8 0
BBX 7 11 1 0
BITMAP
60
20
20
20
46
4a
70
50
90
8a
8c
ENDCHAR
STARTCHAR l
ENCODING 108
SWIDTH 306 0
DWIDTH 4 0
BBX 3 11 1 0
BITMAP
60
20
20
40
40
40
40
80
80
a0
c0
ENDCHAR
STARTCHAR m
ENCODING 109
SWIDTH 912 0
DWIDTH 14 0
BBX 13 7 1 0
BITMAP
cc60
5290
6310
4210
8420
8428
8430
ENDCHAR
STARTCHAR n
ENCODING 110
SWIDTH 618 0
DWIDTH 9 0
BBX 8 7 1 0
BITMAP
cc
52
62
42
84
85
86
ENDCHAR
STARTCHAR o
ENCODING 111
SWIDTH 537 0
DWIDTH 8 0
BBX 6 7 1 0
BITMAP
38
44
c4
84
8c
88
70
ENDCHAR
STARTCHAR p
ENCODING 112
SWIDTH 590 0
DWIDTH 8 0
BBX 7 10 0 -3
BITMAP
6c
32
22
62
46
44
f8
80
80
80
ENDCHAR
STARTCHAR q
ENCODING 113
SWIDTH 559 0
DWIDTH 8 0
BBX 6 11 1 -3
BITMAP
04
3c
44
c4
8c
88
98
68
10
10
10
ENDCHAR
STARTCHAR r
ENCODING 114
SWIDTH 402 0
DWIDTH 6 0
BBX 5 7 1 0
BITMAP
d8
60
40
40
80
80
80
ENDCHAR
STARTCHAR s
ENCODING 115
SWIDTH 389 0
DWIDTH 6 0
BBX 6 7 0 0
BITMAP
38
4c
60
30
18
c8
70
ENDCHAR
STARTCHAR t
ENCODING 116
SWIDTH 341 0
DWIDTH 5 0
BBX 4 9 1 0
BITMAP
20
20
f0
40
40
40
80
a0
c0
ENDCHAR
STARTCHAR u
ENCODING 117
SWIDTH 618 0
DWIDTH 9 0
BBX 8 7 1 0
BITMAP
c2
42
42
84
8c
95
66
ENDCHAR
STARTCHAR v
ENCODING 118
SWIDTH 510 0
DWIDTH 7 0
BBX 6 7 1 0
BITMAP
cc
44
44
88
88
90
60
ENDCHAR
STARTCHAR w
ENCODING 119
SWIDTH 785 0
DWIDTH 11 0
BBX 10 7 1 0
BITMAP
c4c0
4440
4440
8880
8880
9900
6600
ENDCHAR
STARTCHAR x
ENCODING 120
SWIDTH 516 0
DWIDTH 8 0
BBX 8 7 0 0
BITMAP
33
14
18
08
18
25
c6
ENDCHAR
STARTCHAR y
ENCODING 121
SWIDTH 468 0
DWIDTH 7 0
BBX 8 10 -1 -3
BITMAP
63
21
22
14
14
18
10
10
a0
c0
ENDCHAR
STARTCHAR z
ENCODING 122
SWIDTH 468 0
DWIDTH 7 0
BBX 7 7 0 0
BITMAP
3e
44
08
10
22
62
9c
ENDCHAR
STARTCHAR braceleft
ENCODING 123
SWIDTH 340 0
DWIDTH 5 0
BBX 4 12 1 -2
BITMAP
10
20
20
20
40
80
40
40
80
80
80
40
ENDCHAR
STARTCHAR bar
ENCODING 124
SWIDTH 270 0
DWIDTH 4 0
BBX 1 10 2 0
BITMAP
80
80
80
80
80
80
80
80
80
80
ENDCHAR
STARTCHAR braceright
ENCODING 125
SWIDTH 340 0
DWIDTH 5 0
BBX 4 12 0 -2
BITMAP
20
10
10
20
20
10
20
40
40
40
40
80
ENDCHAR
STARTCHAR asciitilde
ENCODING 126
SWIDTH 570 0
DWIDTH 8 0
BBX 7 2 0 3
BITMAP
72
9c
ENDCHAR
STARTCHAR nobreakspace
ENCODING 160
SWIDTH 225 0
DWIDTH 3 0
BBX 0 0 0 0
BITMAP
ENDCHAR
STARTCHAR Aogonek
ENCODING 161
SWIDTH 624 0
DWIDTH 9 0
BBX 9 13 -1 -3
BITMAP
0200
0600
0a00
0a00
1200
1f00
2100
2100
4100
e380
0800
1000
1c00
ENDCHAR
STARTCHAR breve
ENCODING 162
SWIDTH 400 0
DWIDTH 6 0
BBX 4 2 1 8
BITMAP
90
60
ENDCHAR
STARTCHAR Lstroke
ENCODING 163
SWIDTH 571 0
DWIDTH 8 0
BBX 7 10 0 0
BITMAP
38
10
30
20
38
20
e0
40
42
fe
ENDCHAR
STARTCHAR currency
ENCODING 164
SWIDTH 530 0
DWIDTH 8 0
BBX 6 6 1 2
BITMAP
b4
48
84
84
48
b4
ENDCHAR
STARTCHAR Lcaron
ENCODING 165
SWIDTH 617 0
DWIDTH 9 0
BBX 8 11 0 0
BITMAP
01
39
12
30
20
20
20
60
40
42
fe
ENDCHAR
STARTCHAR Sacute
ENCODING 166
SWIDTH 533 0
DWIDTH 8 0
BBX 8 13 0 0
BITMAP
02
04
00
0f
11
20
20
38
0e
02
02
84
f8
ENDCHAR
STARTCHAR section
ENCODING 167
SWIDTH 530 0
DWIDTH 8 0
BBX 7 12 0 -2
BITMAP
1c
26
60
b0
98
cc
64
34
18
08
d0
60
ENDCHAR
STARTCHAR diaeresis
ENCODING 168
SWIDTH 400 0
DWIDTH 6 0
BBX 3 2 2 8
BITMAP
a0
a0
ENDCHAR
STARTCHAR Scaron
ENCODING 169
SWIDTH 533 0
DWIDTH 8 0
BBX 8 13 0 0
BITMAP
0a
04
00
0f
11
20
20
38
0e
02
02
84
f8
ENDCHAR
STARTCHAR Scedilla
ENCODING 170
SWIDTH 533 0
DWIDTH 8 0
BBX 8 13 0 -3
BITMAP
0f
11
20
20
38
0e
02
02
84
f8
10
08
38
ENDCHAR
STARTCHAR Tcaron
ENCODING 171
SWIDTH 606 0
DWIDTH 9 0
BBX 9 13 1 0
BITMAP
1400
0800
0000
ff80
8880
0800
1800
1000
1000
3000
2000
2000
7000
ENDCHAR
STARTCHAR Zacute
ENCODING 172
SWIDTH 622 0
DWIDTH 9 0
BBX 9 13 0 0
BITMAP
0200
0400
0000
7f80
4100
0200
0400
0800
1000
2000
4000
8100
ff00
ENDCHAR
STARTCHAR hyphen
ENCODING 173
SWIDTH 392 0
DWIDTH 6 0
BBX 4 1 1 3
BITMAP
f0
ENDCHAR
STARTCHAR Zcaron
ENCODING 174
SWIDTH 622 0
DWIDTH 9 0
BBX 9 13 0 0
BITMAP
0a00
0400
0000
7f80
4100
0200
0400
0800
1000
2000
4000
8100
ff00
ENDCHAR
STARTCHAR Zabovedot
ENCODING 175
SWIDTH 622 0
DWIDTH 9 0
BBX 9 13 0 0
BITMAP
0400
0400
0000
7f80
4100
0200
0400
0800
1000
2000
4000
8100
ff00
ENDCHAR
STARTCHAR degree
ENCODING 176
SWIDTH 400 0
DWIDTH 8 0
BBX 5 4 2 6
BITMAP
70
88
88
70
ENDCHAR
STARTCHAR aogonek
ENCODING 177
SWIDTH 561 0
DWIDTH 8 0
BBX 7 10 1 -3
BITMAP
3c
44
c4
88
88
9a
ec
10
20
38
ENDCHAR
STARTCHAR ogonek
ENCODING 178
SWIDTH 350 0
DWIDTH 5 0
BBX 3 3 1 -3
BITMAP
40
80
e0
ENDCHAR
STARTCHAR lstroke
ENCODING 179
SWIDTH 318 0
DWIDTH 4 0
BBX 5 11 0 0
BITMAP
30
10
10
28
30
60
a0
40
40
50
60
ENDCHAR
STARTCHAR acute
ENCODING 180
SWIDTH 400 0
DWIDTH 6 0
BBX 2 2 2 8
BITMAP
40
80
ENDCHAR
STARTCHAR lcaron
ENCODING 181
SWIDTH 480 0
DWIDTH 7 0
BBX 6 12 1 0
BITMAP
04
64
28
20
40
40
40
40
80
80
a0
c0
ENDCHAR
STARTCHAR sacute
ENCODING 182
SWIDTH 389 0
DWIDTH 6 0
BBX 6 10 0 0
BITMAP
08
10
00
38
4c
60
30
18
c8
70
ENDCHAR
STARTCHAR caron
ENCODING 183
SWIDTH 400 0
DWIDTH 6 0
BBX 3 2 2 8
BITMAP
a0
40
ENDCHAR
STARTCHAR cedilla
ENCODING 184
SWIDTH 400 0
DWIDTH 6 0
BBX 3 3 1 -3
BITMAP
40
20
e0
ENDCHAR
STARTCHAR scaron
ENCODING 185
SWIDTH 389 0
DWIDTH 6 0
BBX 6 10 0 0
BITMAP
28
10
00
38
4c
60
30
18
c8
70
ENDCHAR
STARTCHAR scedilla
ENCODING 186
SWIDTH 389 0
DWIDTH 6 0
BBX 6 10 0 -3
BITMAP
38
4c
60
30
18
c8
70
20
10
70
ENDCHAR
STARTCHAR tcaron
ENCODING 187
SWIDTH 480 0
DWIDTH 7 0
BBX 6 11 1 0
BITMAP
04
04
28
20
f0
40
40
40
80
a0
c0
ENDCHAR
STARTCHAR zacute
ENCODING 188
SWIDTH 468 0
DWIDTH 7 0
BBX 7 10 0 0
BITMAP
08
10
00
3e
44
08
10
22
62
9c
ENDCHAR
STARTCHAR doubleacute
ENCODING 189
SWIDTH 400 0
DWIDTH 6 0
BBX 4 2 1 8
BITMAP
50
a0
ENDCHAR
STARTCHAR zcaron
ENCODING 190
SWIDTH 468 0
DWIDTH 7 0
BBX 7 10 0 0
BITMAP
28
10
00
3e
44
08
10
22
62
9c
ENDCHAR
STARTCHAR zabovedot
ENCODING 191
SWIDTH 468 0
DWIDTH 7 0
BBX 7 10 0 0
BITMAP
10
10
00
3e
44
08
10
22
62
9c
ENDCHAR
STARTCHAR Racute
ENCODING 192
SWIDTH 640 0
DWIDTH 9 0
BBX 8 13 0 0
BITMAP
02
04
00
3e
13
31
21
22
3c
64
46
42
e3
ENDCHAR
STARTCHAR Aacute
ENCODING 193
SWIDTH 624 0
DWIDTH 9 0
BBX 9 12 -1 0
BITMAP
0100
0200
0000
0200
0600
0a00
0a00
1200
3f00
2100
4100
e380
ENDCHAR
STARTCHAR Acircumflex
ENCODING 194
SWIDTH 624 0
DWIDTH 9 0
BBX 9 12 -1 0
BITMAP
0200
0500
0000
0200
0600
0a00
0a00
1200
3f00
2100
4100
e380
ENDCHAR
STARTCHAR Abreve
ENCODING 195
SWIDTH 624 0
DWIDTH 9 0
BBX 9 13 -1 0
BITMAP
0480
0300
0000
0200
0600
0a00
0a00
1200
1f00
2100
2100
4100
e380
ENDCHAR
STARTCHAR Adiaeresis
ENCODING 196
SWIDTH 624 0
DWIDTH 9 0
BBX 9 12 -1 0
BITMAP
0500
0500
0000
0200
0600
0a00
0a00
1200
3f00
2100
4100
e380
ENDCHAR
STARTCHAR Lacute
ENCODING 197
SWIDTH 565 0
DWIDTH 8 0
BBX 7 13 0 0
BITMAP
08
10
00
38
10
30
20
20
20
60
40
42
fe
ENDCHAR
STARTCHAR Cacute
ENCODING 198
SWIDTH 661 0
DWIDTH 10 0
BBX 9 13 1 0
BITMAP
0200
0400
0000
0f80
3080
6000
4000
c000
8000
8000
8100
4300
3e00
ENDCHAR
STARTCHAR Ccedilla
ENCODING 199
SWIDTH 661 0
DWIDTH 10 0
BBX 9 13 1 -3
BITMAP
0f80
3080
6000
4000
c000
8000
8000
8100
4300
3e00
1000
0800
3800
ENDCHAR
STARTCHAR Ccaron
ENCODING 200
SWIDTH 661 0
DWIDTH 10 0
BBX 9 13 1 0
BITMAP
0a00
0400
0000
0f80
3080
6000
4000
c000
8000
8000
8100
4300
3e00
ENDCHAR
STARTCHAR Eacute
ENCODING 201
SWIDTH 596 0
DWIDTH 8 0
BBX 8 12 0 0
BITMAP
02
04
00
3f
11
30
22
3c
64
40
42
fe
ENDCHAR
STARTCHAR Eogonek
ENCODING 202
SWIDTH 596 0
DWIDTH 8 0
BBX 8 13 0 -3
BITMAP
3f
11
30
22
3c
24
60
40
42
fe
10
20
38
ENDCHAR
STARTCHAR Ediaeresis
ENCODING 203
SWIDTH 596 0
DWIDTH 8 0
BBX 8 12 0 0
BITMAP
0a
0a
00
3f
11
30
22
3c
64
40
42
fe
ENDCHAR
STARTCHAR Ecaron
ENCODING 204
SWIDTH 596 0
DWIDTH 8 0
BBX 8 13 0 0
BITMAP
0a
04
00
3f
11
30
22
3c
24
60
40
42
fe
ENDCHAR
STARTCHAR Iacute
ENCODING 205
SWIDTH 345 0
DWIDTH 5 0
BBX 5 12 0 0
BITMAP
08
10
00
38
10
30
20
20
20
60
40
e0
ENDCHAR
STARTCHAR Icircumflex
ENCODING 206
SWIDTH 345 0
DWIDTH 5 0
BBX 5 12 0 0
BITMAP
10
28
00
38
10
30
20
20
20
60
40
e0
ENDCHAR
STARTCHAR Dcaron
ENCODING 207
SWIDTH 763 0
DWIDTH 11 0
BBX 10 13 0 0
BITMAP
0a00
0400
0000
3f00
1080
3040
2040
2040
20c0
6080
4180
4300
fc00
ENDCHAR
STARTCHAR Dstroke
ENCODING 208
SWIDTH 770 0
DWIDTH 11 0
BBX 10 10 0 0
BITMAP
3f00
1080
3040
2040
7840
20c0
6080
4180
4300
fc00
ENDCHAR
STARTCHAR Nacute
ENCODING 209
SWIDTH 763 0
DWIDTH 11 0
BBX 11 13 0 0
BITMAP
0100
0200
0000
30e0
1840
1840
2880
2480
2480
2280
4300
4300
e100
ENDCHAR
STARTCHAR Ncaron
ENCODING 210
SWIDTH 763 0
DWIDTH 11 0
BBX 11 13 0 0
BITMAP
0500
0200
0000
30e0
1840
1840
2880
2480
2480
2280
4300
4300
e100
ENDCHAR
STARTCHAR Oacute
ENCODING 211
SWIDTH 753 0
DWIDTH 12 0
BBX 10 12 1 0
BITMAP
0100
0200
0000
0f00
3080
6040
4040
c0c0
8080
8180
4300
3c00
ENDCHAR
STARTCHAR Ocircumflex
ENCODING 212
SWIDTH 753 0
DWIDTH 12 0
BBX 10 12 1 0
BITMAP
0400
0a00
0000
0f00
3080
6040
4040
c0c0
8080
8180
4300
3c00
ENDCHAR
STARTCHAR Odoubleacute
ENCODING 213
SWIDTH 753 0
DWIDTH 12 0
BBX 10 13 1 0
BITMAP
0500
0a00
0000
0f00
3080
6040
4040
c040
80c0
8080
8180
4300
3c00
ENDCHAR
STARTCHAR Odiaeresis
ENCODING 214
SWIDTH 753 0
DWIDTH 12 0
BBX 10 12 1 0
BITMAP
0500
0500
0000
0f00
3080
6040
4040
c0c0
8080
8180
4300
3c00
ENDCHAR
STARTCHAR multiply
ENCODING 215
SWIDTH 570 0
DWIDTH 8 0
BBX 7 7 0 0
BITMAP
82
44
28
10
28
44
82
ENDCHAR
STARTCHAR Rcaron
ENCODING 216
SWIDTH 640 0
DWIDTH 9 0
BBX 8 13 0 0
BITMAP
0a
04
00
3e
13
31
21
22
3c
64
46
42
e3
ENDCHAR
STARTCHAR Uring
ENCODING 217
SWIDTH 794 0
DWIDTH 12 0
BBX 11 14 1 0
BITMAP
0180
0280
0300
0000
70e0
2040
60c0
4080
4080
c180
8100
8100
c200
7c00
ENDCHAR
STARTCHAR Uacute
ENCODING 218
SWIDTH 794 0
DWIDTH 12 0
BBX 11 12 1 0
BITMAP
0100
0200
0000
70e0
2040
60c0
4080
4080
c180
8100
c300
7e00
ENDCHAR
STARTCHAR Udoubleacute
ENCODING 219
SWIDTH 794 0
DWIDTH 12 0
BBX 11 13 1 0
BITMAP
0280
0500
0000
70e0
2040
60c0
4080
4080
c180
8100
8100
c200
7c00
ENDCHAR
STARTCHAR Udiaeresis
ENCODING 220
SWIDTH 794 0
DWIDTH 12 0
BBX 11 12 1 0
BITMAP
0500
0500
0000
70e0
2040
60c0
4080
4080
c180
8100
c300
7e00
ENDCHAR
STARTCHAR Yacute
ENCODING 221
SWIDTH 591 0
DWIDTH 10 0
BBX 9 12 1 0
BITMAP
0400
0800
0000
e380
4100
6200
2400
3800
1000
2000
2000
7000
ENDCHAR
STARTCHAR Tcedilla
ENCODING 222
SWIDTH 606 0
DWIDTH 9 0
BBX 9 13 1 -3
BITMAP
ff80
8880
0800
1800
1000
1000
3000
2000
2000
7000
0800
0400
1c00
ENDCHAR
STARTCHAR ssharp
ENCODING 223
SWIDTH 577 0
DWIDTH 8 0
BBX 10 14 -2 -3
BITMAP
0380
0440
0440
0480
1900
0900
0980
08c0
0840
1240
1380
1000
9000
e000
ENDCHAR
STARTCHAR racute
ENCODING 224
SWIDTH 402 0
DWIDTH 6 0
BBX 5 10 1 0
BITMAP
10
20
00
d8
60
40
40
80
80
80
ENDCHAR
STARTCHAR aacute
ENCODING 225
SWIDTH 561 0
DWIDTH 8 0
BBX 7 10 1 0
BITMAP
04
08
00
3c
44
c4
88
88
9a
ec
ENDCHAR
STARTCHAR acircumflex
ENCODING 226
SWIDTH 561 0
DWIDTH 8 0
BBX 7 10 1 0
BITMAP
08
14
00
3c
44
c4
88
88
9a
ec
ENDCHAR
STARTCHAR abreve
ENCODING 227
SWIDTH 561 0
DWIDTH 8 0
BBX 7 10 1 0
BITMAP
24
18
00
3c
44
c4
88
88
9a
ec
ENDCHAR
STARTCHAR adiaeresis
ENCODING 228
SWIDTH 561 0
DWIDTH 8 0
BBX 7 10 1 0
BITMAP
14
14
00
3c
44
c4
88
88
9a
ec
ENDCHAR
STARTCHAR lacute
ENCODING 229
SWIDTH 306 0
DWIDTH 4 0
BBX 4 14 1 0
BITMAP
10
20
00
60
20
20
40
40
40
40
80
80
a0
c0
ENDCHAR
STARTCHAR cacute
ENCODING 230
SWIDTH 441 0
DWIDTH 7 0
BBX 5 10 1 0
BITMAP
10
20
00
38
48
c0
80
80
88
70
ENDCHAR
STARTCHAR ccedilla
ENCODING 231
SWIDTH 441 0
DWIDTH 7 0
BBX 5 10 1 -3
BITMAP
38
48
c0
80
80
88
70
40
20
e0
ENDCHAR
STARTCHAR ccaron
ENCODING 232
SWIDTH 441 0
DWIDTH 7 0
BBX 5 10 1 0
BITMAP
50
20
00
38
48
c0
80
80
88
70
ENDCHAR
STARTCHAR eacute
ENCODING 233
SWIDTH 453 0
DWIDTH 7 0
BBX 5 10 1 0
BITMAP
08
10
00
38
48
c8
90
e0
88
70
ENDCHAR
STARTCHAR eogonek
ENCODING 234
SWIDTH 453 0
DWIDTH 7 0
BBX 5 10 1 -3
BITMAP
38
48
c8
90
e0
88
70
20
40
70
ENDCHAR
STARTCHAR ediaeresis
ENCODING 235
SWIDTH 453 0
DWIDTH 7 0
BBX 5 10 1 0
BITMAP
28
28
00
38
48
c8
90
e0
88
70
ENDCHAR
STARTCHAR ecaron
ENCODING 236
SWIDTH 453 0
DWIDTH 7 0
BBX 5 10 1 0
BITMAP
50
20
00
38
48
c8
90
e0
88
70
ENDCHAR
STARTCHAR iacute
ENCODING 237
SWIDTH 317 0
DWIDTH 4 0
BBX 3 10 1 0
BITMAP
40
80
00
c0
40
40
80
80
a0
c0
ENDCHAR
STARTCHAR icircumflex
ENCODING 238
SWIDTH 317 0
DWIDTH 4 0
BBX 3 10 1 0
BITMAP
40
a0
00
c0
40
40
80
80
a0
c0
ENDCHAR
STARTCHAR dcaron
ENCODING 239
SWIDTH 822 0
DWIDTH 12 0
BBX 10 12 1 0
BITMAP
0040
0640
0280
0200
0400
3c00
4400
c400
8800
8800
9a00
6c00
ENDCHAR
STARTCHAR dstroke
ENCODING 240
SWIDTH 754 0
DWIDTH 11 0
BBX 9 11 1 0
BITMAP
0600
0200
1f80
0400
3c00
4400
c400
8800
8800
9a00
6c00
ENDCHAR
STARTCHAR nacute
ENCODING 241
SWIDTH 618 0
DWIDTH 9 0
BBX 8 10 1 0
BITMAP
08
10
00
cc
52
62
42
84
85
86
ENDCHAR
STARTCHAR ncaron
ENCODING 242
SWIDTH 618 0
DWIDTH 9 0
BBX 8 10 1 0
BITMAP
28
10
00
cc
52
62
42
84
85
86
ENDCHAR
STARTCHAR oacute
ENCODING 243
SWIDTH 537 0
DWIDTH 8 0
BBX 6 10 1 0
BITMAP
08
10
00
38
44
c4
84
8c
88
70
ENDCHAR
STARTCHAR ocircumflex
ENCODING 244
SWIDTH 537 0
DWIDTH 8 0
BBX 6 10 1 0
BITMAP
10
28
00
38
44
c4
84
8c
88
70
ENDCHAR
STARTCHAR odoubleacute
ENCODING 245
SWIDTH 537 0
DWIDTH 8 0
BBX 6 10 1 0
BITMAP
14
28
00
38
44
c4
84
8c
88
70
ENDCHAR
STARTCHAR odiaeresis
ENCODING 246
SWIDTH 537 0
DWIDTH 8 0
BBX 6 10 1 0
BITMAP
28
28
00
38
44
c4
84
8c
88
70
ENDCHAR
STARTCHAR division
ENCODING 247
SWIDTH 570 0
DWIDTH 8 0
BBX 7 7 0 0
BITMAP
10
10
00
fe
00
10
10
ENDCHAR
STARTCHAR rcaron
ENCODING 248
SWIDTH 402 0
DWIDTH 6 0
BBX 5 10 1 0
BITMAP
50
20
00
d8
60
40
40
80
80
80
ENDCHAR
STARTCHAR uring
ENCODING 249
SWIDTH 618 0
DWIDTH 9 0
BBX 8 11 1 0
BITMAP
0c
14
18
00
c2
42
42
84
8c
95
66
ENDCHAR
STARTCHAR uacute
ENCODING 250
SWIDTH 618 0
DWIDTH 9 0
BBX 8 10 1 0
BITMAP
04
08
00
c2
42
42
84
8c
95
66
ENDCHAR
STARTCHAR udoubleacute
ENCODING 251
SWIDTH 618 0
DWIDTH 9 0
BBX 8 10 1 0
BITMAP
14
28
00
c2
42
42
84
8c
95
66
ENDCHAR
STARTCHAR udiaeresis
ENCODING 252
SWIDTH 618 0
DWIDTH 9 0
BBX 8 10 1 0
BITMAP
14
14
00
c2
42
42
84
8c
95
66
ENDCHAR
STARTCHAR yacute
ENCODING 253
SWIDTH 468 0
DWIDTH 7 0
BBX 8 13 -1 -3
BITMAP
04
08
00
63
21
22
14
14
18
10
10
a0
c0
ENDCHAR
STARTCHAR tcedilla
ENCODING 254
SWIDTH 341 0
DWIDTH 5 0
BBX 4 12 1 -3
BITMAP
20
20
f0
40
40
40
80
a0
c0
40
20
e0
ENDCHAR
STARTCHAR abovedot
ENCODING 255
SWIDTH 402 0
DWIDTH 6 0
BBX 1 2 2 8
BITMAP
80
80
ENDCHAR
ENDFONT
